<svg width="64" height="64" viewBox="0 0 64 64" fill="none" xmlns="http://www.w3.org/2000/svg">
<g id="image">
<path id="Vector" d="M50.6667 8H13.3333C10.3878 8 8 10.3878 8 13.3333V50.6667C8 53.6122 10.3878 56 13.3333 56H50.6667C53.6122 56 56 53.6122 56 50.6667V13.3333C56 10.3878 53.6122 8 50.6667 8Z" stroke="#FFCA18" stroke-width="3" stroke-linecap="round" stroke-linejoin="round"/>
<path id="Vector_2" d="M22.6665 26.6667C24.8756 26.6667 26.6665 24.8759 26.6665 22.6667C26.6665 20.4576 24.8756 18.6667 22.6665 18.6667C20.4574 18.6667 18.6665 20.4576 18.6665 22.6667C18.6665 24.8759 20.4574 26.6667 22.6665 26.6667Z" stroke="#FFCA18" stroke-width="3" stroke-linecap="round" stroke-linejoin="round"/>
<path id="Vector_3" d="M56.0002 40.0001L42.6668 26.6667L13.3335 56.0001" stroke="#FFCA18" stroke-width="3" stroke-linecap="round" stroke-linejoin="round"/>
</g>
</svg>
