<svg width="28" height="24" viewBox="0 0 28 24" fill="none" xmlns="http://www.w3.org/2000/svg">
<path d="M15.3182 17.2225H15.3174H15.3159H15.3144H15.3128H15.3112H15.3095H15.3077H15.3058H15.3039H15.302H15.2999H15.2978H15.2957H15.2934H15.2911H15.2888H15.2864H15.2839H15.2814H15.2788H15.2761H15.2734H15.2706H15.2678H15.2649H15.2619H15.2589H15.2558H15.2526H15.2494H15.2462H15.2429H15.2395H15.236H15.2325H15.229H15.2254H15.2217H15.218H15.2142H15.2103H15.2064H15.2025H15.1985H15.1944H15.1903H15.1861H15.1818H15.1775H15.1732H15.1688H15.1643H15.1598H15.1552H15.1506H15.1459H15.1412H15.1364H15.1316H15.1267H15.1218H15.1168H15.1117H15.1066H15.1015H15.0962H15.091H15.0857H15.0803H15.0749H15.0694H15.0639H15.0584H15.0528H15.0471H15.0414H15.0356H15.0298H15.0239H15.018H15.0121H15.0061H15H14.9939H14.9877H14.9815H14.9753H14.969H14.9627H14.9563H14.9498H14.9434H14.9368H14.9303H14.9236H14.917H14.9103H14.9035H14.8967H14.8899H14.883H14.876H14.8691H14.862H14.855H14.8479H14.8407H14.8335H14.8263H14.819H14.8117H14.8043H14.7969H14.7895H14.782H14.7744H14.7669H14.7592H14.7516H14.7439H14.7362H14.7284H14.7206H14.7127H14.7048H14.6969H14.6889H14.6809H14.6729H14.6648H14.6566H14.6485H14.6403H14.632H14.6238H14.6155H14.6071H14.5987H14.5903H14.5818H14.5733H14.5648H14.5562H14.5476H14.539H14.5303H14.5216H14.5129H14.5041H14.4953H14.4865H14.4776H14.4687H14.4597H14.4508H14.4417H14.4327H14.4236H14.4145H14.4054H14.3962H14.387H14.3778H14.3685H14.3592H14.3499H14.3405H14.3311H14.3217H14.3123H14.3028H14.2933H14.2838H14.2742H14.2646H14.255H14.2453H14.2357H14.226H14.2162H14.2065H14.1967H14.1869H14.177H14.1671H14.1573H14.1473H14.1374H14.1274H14.1174H14.1074H14.0973H14.0873H14.0772H14.067H14.0569H14.0467H14.0365H14.0263H14.0161H14.0058H13.9955H13.9852H13.9749H13.9645H13.9541H13.9437H13.9333H13.9229H13.9124H13.9019H13.8914H13.8809H13.8703H13.8598H13.8492H13.8386H13.8279H13.8173H13.8066H13.7959H13.7852H13.7745H13.7637H13.753H13.7422H13.7314H13.7206H13.7098H13.6989H13.6881H13.6772H13.6663H13.6554H13.6444H13.6335H13.6225H13.6115H13.6006H13.5895H13.5785H13.5675H13.5564H13.5454H13.5343H13.5232H13.5121H13.501H13.4898H13.4787H13.4675H13.4564H13.4452H13.434H13.4228H13.4116H13.4003H13.3891H13.3778H13.3666H13.3553H13.344H13.3327H13.3214H13.3101H13.2988H13.2875H13.2761H13.2648H13.2534H13.2421H13.2307H13.2193H13.2079H13.1965H13.1851H13.1737H13.1623H13.1508H13.1394H13.128H13.1165H13.1051H13.0936H13.0822H13.0707H13.0592H13.0477H13.0363H13.0248H13.0133H13.0018H12.9903H12.9788H12.9673H12.9558H12.9443H12.9328H12.9213H12.9097H12.8982H12.8867H12.8752H12.8636H12.8521H12.8406H12.8291H12.8175H12.806H12.7945H12.783H12.7714H12.7599H12.7484H12.7369H12.7253H12.7138H12.7023H12.6908H12.6793H12.6677H12.6562H12.6447H12.6332H12.6217H12.6102H12.5987H12.5872H12.5757H12.5642H12.5528H12.5413H12.5298H12.5183H12.5069H12.4954H12.484H12.4725H12.4611H12.4497H12.4382H12.4268H12.4154H12.404H12.3926H12.3812H12.3698H12.3584H12.3471H12.3357H12.3244H12.313H12.3017H12.2904H12.2791H12.2678H12.2565H12.2452H12.2339H12.2227H12.2114H12.2002H12.1889H12.1777H12.1665H12.1553H12.1441H12.133H12.1218H12.1107H12.0995H12.0884H12.0773H12.0662H12.0551H12.0441H12.033H12.022H12.0109H11.9999H11.9889H11.978H11.967H11.9561H11.9451H11.9342H11.9233H11.9124H11.9016H11.8907H11.8799H11.8691H11.8583H11.8475H11.8367H11.826H11.8153H11.8046H11.7939H11.7832H11.7726H11.7619H11.7513H11.7407H11.7302H11.7196H11.7091H11.6986H11.6881H11.6776H11.6672H11.6568H11.6464H11.636H11.6256H11.6153H11.605H11.5947H11.5844H11.5742H11.5639H11.5538H11.5436H11.5334H11.5233H11.5132H11.5031H11.4931H11.4831H11.4731H11.4631H11.4531H11.4432H11.4333H11.4235H11.4136H11.4038H11.394H11.3842H11.3745H11.3648H11.3551H11.3455H11.3359H11.3263H11.3167H11.3072H11.2977H11.2902C9.51003 11.2948 3.53291 9.50422 1.76979 9.01747V8.50925C2.0616 8.50329 2.48405 8.50782 3.00505 8.54981C4.06178 8.63499 5.51795 8.87383 7.10994 9.48788C8.80692 10.1424 10.2847 10.3893 11.3943 10.4265C11.9481 10.4451 12.4174 10.4117 12.7809 10.3471C12.9621 10.3149 13.1257 10.2734 13.2643 10.2225C13.3897 10.1764 13.5451 10.1048 13.6636 9.98625C13.8247 9.82525 14.2801 9.38149 14.7263 8.95289C15.1845 8.51274 15.5969 8.12372 15.6917 8.04791C15.7477 8.00317 15.7993 7.95128 15.8378 7.91142C15.8603 7.8882 15.8885 7.85825 15.9147 7.83038C15.9309 7.81314 15.9464 7.79669 15.9593 7.78314C16.0417 7.69646 16.112 7.62838 16.1778 7.58086C16.2101 7.55751 16.2324 7.54581 16.2454 7.54005C16.2506 7.54392 16.2574 7.54944 16.2659 7.55716L16.3729 7.43946L16.4366 7.57026L16.8862 7.35152L17.0534 6.88032C16.997 6.86028 16.9655 6.84174 16.939 6.81756L16.9386 6.81721C16.8079 6.69842 16.6621 6.61392 16.5059 6.56992L16.3613 6.27261C16.2764 6.09849 16.0999 5.98788 15.9062 5.98788H13.0749C12.8187 5.98788 12.8196 5.79287 12.8206 5.54311C12.8207 5.52688 12.8208 5.51042 12.8208 5.49378C12.8208 5.47716 12.8207 5.46074 12.8206 5.44455C12.8196 5.19473 12.8188 5 13.0749 5H15.9062C16.478 5 16.9994 5.32628 17.2494 5.84045L17.6765 6.71836C17.6452 6.74097 17.6182 6.76117 17.5955 6.7785L17.899 7.17582L18.3486 6.95709L18.3188 6.89583C18.739 6.64739 19.4108 6.33127 20.2647 6.20318V6.7094M15.3182 17.2225L15.3325 17.7225C15.3325 17.7225 16.3449 17.6997 16.5594 16.5011L16.2182 16.5669L16.1402 16.3967L16.2667 16.3388L16.1733 16.3342C16.1769 16.2618 16.1955 16.2036 16.2098 16.1679C16.2149 16.1551 16.2195 16.1452 16.2226 16.1386C16.2228 16.1382 16.223 16.1378 16.2231 16.1374M15.3182 17.2225C15.3205 17.2223 15.3235 17.222 15.3272 17.2216C15.3431 17.2198 15.3703 17.2159 15.4052 17.2078C15.4762 17.1913 15.5704 17.1594 15.6644 17.0994C15.8275 16.9952 16.0634 16.7623 16.0954 16.1618L16.2231 16.1374M15.3182 17.2225L16.8682 15.4636M20.2647 6.7094C20.4242 6.68287 20.5911 6.66348 20.7647 6.65336V8.94242L20.7608 8.94207C20.7291 8.93912 20.6827 8.93476 20.6249 8.92915C20.5307 8.92001 20.4062 8.90759 20.2647 8.89262M20.2647 6.7094V8.89262M20.2647 6.7094C19.1636 6.89244 18.4094 7.41516 18.2026 7.57314L17.7268 7.93657L17.8703 8.23138L16.7189 7.82272C16.5808 7.7737 16.4198 7.69729 16.2656 7.55681L16.3728 7.43911M20.2647 8.89262V9.39537C20.0623 9.37422 19.8195 9.34735 19.5779 9.31702L19.3719 8.9703L18.942 9.22564L18.858 9.71853C18.9855 9.74025 19.1265 9.76131 19.272 9.78124L19.7389 10.5673C20.1788 10.3205 20.6485 10.1225 21.1404 9.98017L21.2647 9.99129V9.94553C21.9679 9.7568 22.7144 9.68128 23.4819 9.73866C24.5182 9.81556 25.4814 10.1273 26.3235 10.6164M20.2647 8.89262C20.2324 8.8892 20.1992 8.88565 20.1653 8.88198C19.7972 8.84208 19.3542 8.78868 19.026 8.73275L17.9598 8.55102L18.5122 9.48097L19.309 10.8226L19.5582 11.2421L19.9836 11.0034C21.0015 10.4322 22.1923 10.1436 23.4446 10.2373L23.4449 10.2373C24.2605 10.2978 25.0264 10.5154 25.7162 10.8573M26.3235 10.6164L26.1716 11.0722C26.1425 11.0576 26.1133 11.0431 26.084 11.0289L26.3235 10.6164ZM26.3235 10.6164L25.8492 10.4582L25.7162 10.8573M25.7162 10.8573C25.7433 10.8707 25.7702 10.8843 25.7971 10.8981C25.7695 10.8864 25.7419 10.8748 25.7141 10.8635M25.7162 10.8573L25.7141 10.8635M25.7141 10.8635L25.5556 11.339C24.9887 11.1031 24.3752 10.9522 23.7292 10.9042C22.5911 10.8193 21.6118 10.9559 20.766 11.3173L20.7453 11.2826L20.3155 11.538L20.5585 11.975C20.5626 11.9727 20.5668 11.9704 20.571 11.9681L21.2242 13.0675C21.8156 12.7977 22.4707 12.6431 23.1633 12.6431C25.7478 12.6431 27.8428 14.738 27.8428 17.3225C27.8428 19.9069 25.7478 22.0023 23.1632 22.0023C20.5788 22.0023 18.4836 19.9069 18.4836 17.3225C18.4836 15.8354 19.1795 14.513 20.2609 13.6561L19.6559 12.6375C19.6811 12.6136 19.7063 12.59 19.7318 12.5668L19.3946 12.1975L18.9647 12.4529L19.0304 12.5635C18.3272 13.3392 17.7618 14.3878 17.3076 15.7232C17.2999 15.746 17.1814 15.8568 17.0489 15.98L16.2231 16.1374M25.7141 10.8635C25.1083 10.6154 24.454 10.4567 23.7663 10.4056C22.347 10.2997 21.1205 10.5183 20.0725 11.101L19.6228 11.3511L19.8856 11.7934L20.7943 13.3229L21.0235 13.7087L21.2483 13.6061L21.4904 14.0916L22.7328 16.5832L22.8681 16.8546L23.1713 16.86C23.4253 16.8646 23.6276 17.0705 23.6276 17.3225C23.6276 17.5788 23.4196 17.7868 23.1632 17.7868C22.9068 17.7868 22.699 17.579 22.699 17.3225C22.699 17.2819 22.7072 17.234 22.7279 17.1734L22.7997 16.9629L22.6916 16.7686L21.2015 14.0921L20.8876 13.5281L20.8101 13.6017L20.6908 13.4007L19.8245 11.9422L19.5109 11.4142L19.0574 11.8283C18.1182 12.686 17.4099 13.9055 16.8682 15.4636M16.2231 16.1374C16.2387 16.1047 16.2548 16.0793 16.265 16.0642C16.2858 16.0332 16.3072 16.0074 16.3213 15.9911C16.351 15.9566 16.3859 15.9206 16.4177 15.889C16.4829 15.824 16.5667 15.7456 16.644 15.6737C16.6595 15.6593 16.6749 15.645 16.6899 15.6311C16.7526 15.5728 16.8096 15.5199 16.8552 15.4761C16.8598 15.4717 16.8641 15.4676 16.8682 15.4636M16.3728 7.43911L16.1792 7.04116C16.3136 7.01906 16.4561 7.05429 16.6023 7.18718L16.3728 7.43911Z" stroke="#ACACAC"/>
<path d="M8.85938 17.3225C8.85938 15.0142 6.98804 13.1431 4.67971 13.1431C2.3714 13.1431 0.500108 15.0142 0.500108 17.3225C0.500108 19.6308 2.37145 21.5023 4.67971 21.5023C6.98803 21.5023 8.85938 19.6308 8.85938 17.3225Z" stroke="#ACACAC"/>
<path d="M4.67939 16.8588C4.936 16.8588 5.14355 17.0664 5.14355 17.3227C5.14355 17.5792 4.93572 17.787 4.67939 17.787C4.42311 17.787 4.21525 17.5793 4.21522 17.3228L4.67939 16.8588ZM4.67939 16.8588C4.42288 16.8588 4.21528 17.0664 4.21522 17.3227L4.67939 16.8588Z" stroke="#ACACAC"/>
</svg>
