<svg width="24" height="24" viewBox="0 0 24 24" fill="none" xmlns="http://www.w3.org/2000/svg">
<g clip-path="url(#clip0_445_22611)">
<path d="M11.3115 12.4423L11.3116 12.4424L14.4195 17.8255C14.4463 17.8719 14.4463 17.9732 14.4195 18.0197L11.3116 23.4029L11.3115 23.4029C11.2848 23.4492 11.197 23.4999 11.1434 23.4999H4.92751C4.8739 23.4999 4.78614 23.4492 4.75941 23.4029L4.75938 23.4029L1.65145 18.0197C1.62465 17.9732 1.62465 17.872 1.65144 17.8255C1.65145 17.8255 1.65145 17.8255 1.65145 17.8255L4.75938 12.4424L4.75944 12.4423C4.78614 12.396 4.87384 12.3453 4.92751 12.3453H11.1434C11.1971 12.3453 11.2848 12.396 11.3115 12.4423ZM4.57863 17.9226C4.57863 19.8291 6.12891 21.3794 8.03545 21.3794C9.94198 21.3794 11.4923 19.8292 11.4923 17.9226C11.4923 16.0161 9.94198 14.4658 8.03545 14.4658C6.12891 14.4658 4.57863 16.0161 4.57863 17.9226Z" stroke="#ACACAC"/>
<path d="M20.5101 8.50347L20.5101 8.50356L22.3487 11.688C22.3487 11.688 22.3487 11.688 22.3487 11.688C22.3755 11.7344 22.3755 11.8357 22.3487 11.8821C22.3487 11.8821 22.3487 11.8821 22.3487 11.8821L20.5101 15.0666L20.5101 15.0667C20.4834 15.1129 20.3957 15.1636 20.342 15.1636H16.665C16.6113 15.1636 16.5236 15.1129 16.4969 15.0667L16.4969 15.0666L14.6583 11.8821C14.6583 11.8821 14.6583 11.8821 14.6583 11.8821C14.6315 11.8357 14.6315 11.7344 14.6583 11.688C14.6583 11.688 14.6583 11.688 14.6583 11.688L16.4969 8.50357L16.4969 8.50346C16.5236 8.4572 16.6113 8.40649 16.665 8.40649H20.342C20.3957 8.40649 20.4834 8.45719 20.5101 8.50347ZM16.6147 11.785C16.6147 12.8269 17.4615 13.6738 18.5034 13.6738C19.5453 13.6738 20.3922 12.827 20.3922 11.785C20.3922 10.7432 19.5453 9.89637 18.5034 9.89637C17.4616 9.89637 16.6147 10.7432 16.6147 11.785Z" stroke="#ACACAC"/>
<mask id="path-3-inside-1_445_22611" fill="white">
<path d="M3.31123 7.16001L5.83652 9.66483C5.94369 9.77103 6.12408 9.84517 6.27526 9.84517L9.83352 9.83069C9.98525 9.83013 10.1659 9.75447 10.2728 9.64674L12.7775 7.1215C12.8844 7.01377 12.9585 6.83256 12.9579 6.68088L12.9435 3.12445C12.9429 2.97272 12.8673 2.79207 12.7595 2.68516L10.2342 0.180342C10.127 0.0741388 9.94668 0 9.79368 0L6.23725 0.0144822C6.08541 0.0150412 5.90472 0.0907045 5.798 0.198432L3.29319 2.72368C3.18638 2.83135 3.11219 3.01256 3.1128 3.16429L3.12728 6.72077C3.12784 6.8725 3.2035 7.05315 3.31123 7.16001ZM8.02685 2.82688H8.03543C9.18629 2.82688 10.1264 3.76319 10.131 4.91405C10.1357 6.06968 9.1994 7.01362 8.04392 7.01829H8.03533C6.88448 7.01829 5.94435 6.08198 5.93968 4.93117C5.935 3.77559 6.87132 2.83155 8.02685 2.82688Z"/>
</mask>
<path d="M3.31123 7.16001L2.60697 7.86996L2.60701 7.86999L3.31123 7.16001ZM5.83652 9.66483L5.1323 10.3748L5.13262 10.3751L5.83652 9.66483ZM6.27526 9.84517V10.8452L6.27933 10.8452L6.27526 9.84517ZM9.83352 9.83069L9.82983 8.8307L9.82945 8.8307L9.83352 9.83069ZM10.2728 9.64674L10.9826 10.3512L10.9828 10.351L10.2728 9.64674ZM12.7775 7.1215L12.0676 6.41724L12.0675 6.41728L12.7775 7.1215ZM12.9579 6.68088L13.9579 6.67686L13.9579 6.67682L12.9579 6.68088ZM12.9435 3.12445L11.9435 3.12814L11.9435 3.12851L12.9435 3.12445ZM12.7595 2.68516L13.464 1.97538L13.4638 1.97518L12.7595 2.68516ZM10.2342 0.180342L10.9385 -0.529638L10.938 -0.530124L10.2342 0.180342ZM9.79368 0V-1.00001L9.78961 -0.999992L9.79368 0ZM6.23725 0.0144822L6.24093 1.01448L6.24132 1.01447L6.23725 0.0144822ZM5.798 0.198432L6.50798 0.902661L6.50845 0.90218L5.798 0.198432ZM3.29319 2.72368L4.00314 3.42793L4.00316 3.4279L3.29319 2.72368ZM3.1128 3.16429L2.1128 3.16831L2.11281 3.16836L3.1128 3.16429ZM3.12728 6.72077L4.12727 6.71709L4.12727 6.7167L3.12728 6.72077ZM8.02685 2.82688V1.82687L8.0228 1.82689L8.02685 2.82688ZM10.131 4.91405L11.131 4.91V4.90999L10.131 4.91405ZM8.04392 7.01829V8.0183L8.04797 8.01828L8.04392 7.01829ZM5.93968 4.93117L4.93968 4.93522L4.93968 4.93524L5.93968 4.93117ZM2.60701 7.86999L5.1323 10.3748L6.54074 8.95485L4.01545 6.45003L2.60701 7.86999ZM5.13262 10.3751C5.42753 10.6674 5.8611 10.8452 6.27526 10.8452V8.84517C6.35321 8.84517 6.39975 8.86177 6.41956 8.86991C6.4393 8.87802 6.4845 8.89911 6.54042 8.95453L5.13262 10.3751ZM6.27933 10.8452L9.83759 10.8307L9.82945 8.8307L6.27119 8.84518L6.27933 10.8452ZM9.8372 10.8307C10.2544 10.8291 10.689 10.647 10.9826 10.3512L9.56303 8.94232C9.61847 8.88645 9.66362 8.86492 9.6837 8.85651C9.70377 8.84811 9.75091 8.83099 9.82983 8.8307L9.8372 10.8307ZM10.9828 10.351L13.4875 7.82571L12.0675 6.41728L9.56282 8.94252L10.9828 10.351ZM13.4875 7.82575C13.7813 7.52958 13.9596 7.09354 13.9579 6.67686L11.9579 6.6849C11.9576 6.60617 11.9743 6.559 11.9826 6.53885C11.9908 6.51869 12.012 6.47325 12.0676 6.41724L13.4875 7.82575ZM13.9579 6.67682L13.9435 3.12039L11.9435 3.12851L11.9579 6.68494L13.9579 6.67682ZM13.9435 3.12077C13.9419 2.70357 13.7598 2.26899 13.464 1.97538L12.0551 3.39494C11.9992 3.3395 11.9777 3.29434 11.9693 3.27427C11.9609 3.2542 11.9438 3.20706 11.9435 3.12814L13.9435 3.12077ZM13.4638 1.97518L10.9385 -0.529638L9.53002 0.890321L12.0553 3.39514L13.4638 1.97518ZM10.938 -0.530124C10.6421 -0.823172 10.2083 -1 9.79368 -1V1C9.71798 1 9.6723 0.984009 9.65189 0.975645C9.6318 0.96741 9.58643 0.946198 9.53051 0.890808L10.938 -0.530124ZM9.78961 -0.999992L6.23318 -0.985509L6.24132 1.01447L9.79775 0.999992L9.78961 -0.999992ZM6.23357 -0.985511C5.81662 -0.983976 5.3815 -0.802062 5.08755 -0.505316L6.50845 0.90218C6.45263 0.958536 6.4071 0.980226 6.38697 0.988656C6.3668 0.997105 6.3197 1.01419 6.24093 1.01448L6.23357 -0.985511ZM5.08803 -0.505797L2.58322 2.01945L4.00316 3.4279L6.50798 0.902661L5.08803 -0.505797ZM2.58324 2.01942C2.28957 2.31547 2.11113 2.75148 2.1128 3.16831L4.11279 3.16027C4.11311 3.23903 4.0964 3.28621 4.08815 3.30635C4.07991 3.32648 4.05871 3.37191 4.00314 3.42793L2.58324 2.01942ZM2.11281 3.16836L2.12729 6.72484L4.12727 6.7167L4.11279 3.16022L2.11281 3.16836ZM2.12729 6.72445C2.12882 7.1416 2.31093 7.57629 2.60697 7.86996L4.01548 6.45007C4.07146 6.50559 4.09302 6.55083 4.10144 6.57092C4.10986 6.59101 4.12698 6.63816 4.12727 6.71709L2.12729 6.72445ZM8.02685 3.82688H8.03543V1.82688H8.02685V3.82688ZM8.03543 3.82688C8.63555 3.82688 9.12861 4.31792 9.13105 4.91811L11.131 4.90999C11.1241 3.20847 9.73702 1.82688 8.03543 1.82688V3.82688ZM9.13105 4.91809C9.13349 5.5215 8.64302 6.01586 8.03987 6.0183L8.04797 8.01828C9.75578 8.01137 11.1379 6.61786 11.131 4.91L9.13105 4.91809ZM8.04392 6.01829H8.03533V8.01829H8.04392V6.01829ZM8.03533 6.01829C7.43516 6.01829 6.94211 5.52721 6.93967 4.92711L4.93968 4.93524C4.9466 6.63675 6.33379 8.01829 8.03533 8.01829V6.01829ZM6.93967 4.92713C6.93723 4.32374 7.42773 3.82931 8.03089 3.82687L8.0228 1.82689C6.3149 1.8338 4.93278 3.22745 4.93968 4.93522L6.93967 4.92713Z" fill="#ACACAC" mask="url(#path-3-inside-1_445_22611)"/>
</g>
<defs>
<clipPath id="clip0_445_22611">
<rect width="24" height="24" fill="white"/>
</clipPath>
</defs>
</svg>
