<svg width="24" height="24" viewBox="0 0 24 24" fill="none" xmlns="http://www.w3.org/2000/svg">
<path d="M13.9144 4.31628C13.7194 4.31628 13.545 4.43441 13.47 4.61441C13.3969 4.79628 13.44 5.00253 13.5806 5.13941C13.8206 5.37941 14.1169 5.61941 14.5612 5.69253C14.9231 5.75441 15.5775 5.74691 16.38 5.74691C16.3969 5.87253 16.4137 5.99253 16.4456 6.17253C16.5094 6.55128 16.6106 7.08191 16.7325 7.68003H8.45625L7.74 6.24566C7.76813 6.24378 7.79625 6.24003 7.82437 6.24003C9.07312 6.24003 9.6 5.90441 9.6 5.56691C9.6 5.28003 9.36 5.28003 8.97563 5.32691H5.90438C5.37563 5.32691 5.28 5.56878 5.28 6.00003C5.28 7.10066 5.93062 6.74441 6.77062 6.45566L7.62187 8.16003L6.5025 10.3988C5.97375 10.1963 5.4 10.08 4.8 10.08C2.15437 10.08 0 12.2344 0 14.88C0 17.5257 2.15437 19.68 4.8 19.68C7.2825 19.68 9.33375 17.7807 9.57562 15.36H11.5162C11.5181 15.36 11.5181 15.36 11.52 15.36C11.5219 15.36 11.5256 15.36 11.5275 15.36C11.5406 15.36 11.5538 15.3582 11.5669 15.3582C11.5819 15.3563 11.5969 15.3544 11.6119 15.3525C11.6138 15.3507 11.6137 15.3507 11.6156 15.3507C11.6306 15.3469 11.6438 15.3432 11.6587 15.3394C11.6606 15.3394 11.6606 15.3394 11.6625 15.3375C11.6756 15.3338 11.6906 15.33 11.7037 15.3225C11.7056 15.3225 11.7056 15.3225 11.7075 15.3225C11.7206 15.3169 11.7338 15.3094 11.7469 15.3019C11.7487 15.3019 11.7487 15.3019 11.7506 15.3C11.7638 15.2944 11.775 15.2869 11.7881 15.2775C11.7881 15.2775 11.7881 15.2775 11.79 15.2775C11.8031 15.2682 11.8144 15.2588 11.8275 15.2494L11.8294 15.2475C11.8331 15.2438 11.8369 15.24 11.8425 15.2344C11.85 15.2288 11.8575 15.2213 11.865 15.2157C11.8687 15.21 11.8725 15.2063 11.8762 15.2025C11.88 15.1988 11.8819 15.195 11.8856 15.1932L17.0588 9.15566C17.1525 9.56066 17.2594 9.99003 17.3775 10.4419C15.6319 11.1638 14.4 12.8794 14.4 14.88C14.4 17.5257 16.5544 19.68 19.2 19.68C21.8456 19.68 24 17.5257 24 14.88C24 12.2344 21.8456 10.08 19.2 10.08C18.8906 10.08 18.5906 10.1119 18.2981 10.1682C18.0975 9.39003 17.9194 8.65691 17.7844 8.03441C17.6006 7.18316 17.4731 6.49503 17.3925 6.01316C17.3512 5.77128 17.3212 5.58003 17.3025 5.44878C17.295 5.38316 17.2875 5.33066 17.2838 5.29691C17.28 5.26316 17.28 5.20878 17.28 5.28003C17.28 5.01566 17.0644 4.80003 16.8 4.80003C15.6 4.80003 14.9944 4.79253 14.7188 4.74753C14.4431 4.70066 14.4994 4.70066 14.2594 4.46066C14.1694 4.36691 14.0456 4.31628 13.9144 4.31628ZM8.93625 8.64003H16.2375L11.625 14.0194L8.93625 8.64003ZM8.16 9.23253L10.7419 14.4H9.57562C9.42562 12.8982 8.57625 11.6007 7.36312 10.83L8.16 9.23253ZM4.8 11.04C5.24813 11.04 5.67375 11.1207 6.07312 11.2594L4.37063 14.6644C4.29562 14.8144 4.305 14.9907 4.39125 15.1332C4.47937 15.2738 4.63312 15.36 4.8 15.36H8.60812C8.37187 17.2575 6.76312 18.72 4.8 18.72C2.67375 18.72 0.96 17.0063 0.96 14.88C0.96 12.7538 2.67375 11.04 4.8 11.04ZM19.2 11.04C21.3263 11.04 23.04 12.7538 23.04 14.88C23.04 17.0063 21.3263 18.72 19.2 18.72C17.0737 18.72 15.36 17.0063 15.36 14.88C15.36 13.3182 16.2862 11.9813 17.6213 11.3794C17.9287 12.5025 18.3 13.7307 18.7463 15.0357C18.7969 15.2044 18.9356 15.3319 19.1081 15.3675C19.2806 15.4032 19.4587 15.3432 19.5712 15.2082C19.6856 15.0732 19.7175 14.8894 19.6537 14.7244C19.2113 13.4307 18.8438 12.21 18.54 11.1C18.7556 11.0625 18.975 11.04 19.2 11.04ZM6.93375 11.685C7.8375 12.2888 8.4675 13.2657 8.60812 14.4H5.57625L6.93375 11.685Z" fill="#ACACAC"/>
</svg>
