<svg width="23" height="21" viewBox="0 0 23 21" fill="none" xmlns="http://www.w3.org/2000/svg">
<g clip-path="url(#clip0_545_5854)">
<path d="M2.87502 2.625H14.375C15.4292 2.625 16.2917 3.4125 16.2917 4.375V6.125C19.4542 6.125 22.0417 8.4875 22.0417 11.375V16.625H20.125C20.125 18.0749 18.838 19.25 17.25 19.25C15.6621 19.25 14.375 18.0749 14.375 16.625H10.5417C10.5417 18.0749 9.25464 19.25 7.66669 19.25C6.07873 19.25 4.79169 18.0749 4.79169 16.625H2.87502C1.82085 16.625 0.958353 15.8375 0.958353 14.875V4.375C0.958353 3.4125 1.82085 2.625 2.87502 2.625ZM6.70835 16.625C6.70835 17.1076 7.13817 17.5 7.66669 17.5C8.19521 17.5 8.62502 17.1076 8.62502 16.625C8.62502 16.1424 8.19521 15.75 7.66669 15.75C7.13817 15.75 6.70835 16.1424 6.70835 16.625ZM17.25 17.5C17.7785 17.5 18.2084 17.1076 18.2084 16.625C18.2084 16.1424 17.7785 15.75 17.25 15.75C16.7215 15.75 16.2917 16.1424 16.2917 16.625C16.2917 17.1076 16.7215 17.5 17.25 17.5ZM16.2917 7.4375V9.1875C17.1839 9.1875 17.9266 9.74662 18.1408 10.5H20.4935C20.0555 8.74913 18.3396 7.4375 16.2917 7.4375Z" fill="#434950"/>
</g>
<defs>
<clipPath id="clip0_545_5854">
<rect width="23" height="21" fill="white" transform="matrix(-1 0 0 1 23 0)"/>
</clipPath>
</defs>
</svg>
