<svg width="40" height="40" viewBox="0 0 40 40" fill="none" xmlns="http://www.w3.org/2000/svg">
<path d="M24.3023 10.1965C24.227 9.75577 23.8452 9.43335 23.3977 9.43335H2.76797C2.17344 9.43335 1.69203 9.9153 1.69203 10.5087C1.69203 11.1033 2.17344 11.5847 2.76797 11.5847H7.78852C8.38305 11.5847 8.86445 12.0667 8.86445 12.6607C8.86445 13.2547 8.38305 13.7366 7.78852 13.7366H1.07594C0.481953 13.7366 0 14.2186 0 14.8126C0 15.4066 0.481953 15.8879 1.07594 15.8879H10.2255C10.7505 15.8879 11.1764 16.3144 11.1764 16.8394C11.1764 17.3644 10.7505 17.7904 10.2255 17.7904H5.36445C4.76992 17.7904 4.28852 18.2724 4.28852 18.8664C4.28852 19.4603 4.76992 19.9423 5.36445 19.9423H8.94703C9.4725 19.9423 9.89852 20.3683 9.89852 20.8933C9.89852 21.4182 9.4725 21.8442 8.94703 21.8442H4.00117C3.40664 21.8442 2.92523 22.3262 2.92523 22.9201C2.92523 23.5141 3.40664 23.9961 4.00117 23.9961H10.7991L11.2279 26.4212H13.6904C13.5455 26.7731 13.463 27.1573 13.463 27.5617C13.463 29.2215 14.8081 30.5667 16.468 30.5667C18.1271 30.5667 19.4723 29.2215 19.4723 27.5617C19.4723 27.1573 19.3898 26.7731 19.2449 26.4212H27.0605L24.3023 10.1965ZM17.7611 27.5616C17.7611 28.2762 17.1824 28.8548 16.4679 28.8548C15.7529 28.8548 15.1741 28.2762 15.1741 27.5616C15.1741 27.0644 15.4575 26.6379 15.8688 26.4212H17.0664C17.4777 26.6379 17.7611 27.0644 17.7611 27.5616Z" fill="white"/>
<path d="M39.9686 24.5369L38.7343 18.4477L34.2274 11.5134H26.0214L28.5631 26.4212H31.5647C31.4205 26.773 31.3378 27.1572 31.3378 27.5616C31.3378 29.2214 32.6831 30.5666 34.3422 30.5666C36.002 30.5666 37.3472 29.2214 37.3472 27.5616C37.3472 27.1572 37.2646 26.773 37.1199 26.4212H38.4277C38.8995 26.4212 39.3464 26.2096 39.6451 25.8441C39.9432 25.4794 40.0625 24.9991 39.9686 24.5369ZM30.6663 14.2876H32.7221L35.391 18.3929H31.3667L30.6663 14.2876ZM35.636 27.5616C35.636 28.2762 35.0573 28.8548 34.3422 28.8548C33.6283 28.8548 33.0491 28.2762 33.0491 27.5616C33.0491 27.0644 33.3331 26.6379 33.7438 26.4212H34.9413C35.3526 26.6379 35.636 27.0644 35.636 27.5616Z" fill="white"/>
</svg>
