<svg width="40" height="40" viewBox="0 0 40 40" fill="none" xmlns="http://www.w3.org/2000/svg">
<path d="M4.58427 14.487V12.7852C4.58427 12.7852 7.9876 12.4329 12.0953 14.0173C16.2029 15.6017 19.1955 15.1911 19.6062 14.7801C20.017 14.3696 21.8946 12.5504 22.1883 12.3155C22.4816 12.0811 23.0685 11.1422 23.7139 11.7288C23.8267 11.8316 23.9468 11.8908 24.0681 11.9339L23.4133 10.5878C23.3074 10.3705 23.0871 10.2325 22.8454 10.2325H19.3129C18.9726 10.2325 18.9959 9.95659 18.9959 9.61606C18.9959 9.27546 18.9727 9 19.3129 9H22.8454C23.5588 9 24.2094 9.40709 24.5213 10.0486L25.3318 11.7147C25.677 11.4509 27.0013 10.5384 28.9071 10.438V14.5452C28.9071 14.5452 27.4918 14.4185 26.6331 14.2721L27.6274 15.9461C29.0009 15.1755 30.6085 14.7859 32.2973 14.9122C33.5902 15.0081 34.7919 15.3971 35.8427 16.0073L35.4535 17.1747C34.5946 16.7275 33.6331 16.4428 32.6058 16.3664C30.9265 16.2412 29.5242 16.5024 28.3467 17.1572L29.4804 19.0655C30.2183 18.7288 31.0357 18.536 31.8998 18.536C35.1243 18.5359 37.7382 21.1497 37.7382 24.3742C37.7382 27.5987 35.1243 30.213 31.8996 30.213C28.6752 30.213 26.0611 27.5987 26.0611 24.3742C26.0611 22.5188 26.9294 20.8689 28.2786 19.7998L27.1978 17.98C26.1057 18.9773 25.2553 20.4344 24.594 22.3788C24.5717 22.4449 23.8052 23.102 23.8018 23.1716L23.7045 22.9592C23.6043 24.8401 22.1296 24.8733 22.1296 24.8733C22.1296 24.8733 18.3156 24.8733 16.6138 24.8733C14.5011 16.8341 5.99253 14.8975 4.58427 14.487ZM28.408 24.3742C28.408 26.3025 29.9716 27.8658 31.8996 27.8658C33.8279 27.8658 35.3913 26.3025 35.3913 24.3742C35.3913 22.4464 33.8279 20.8826 31.8996 20.8826C31.474 20.8826 31.0676 20.9628 30.6903 21.1023L31.9209 23.1735C32.5753 23.1852 33.1028 23.7171 33.1028 24.3742C33.1028 25.0386 32.5641 25.5773 31.8996 25.5773C31.2351 25.5773 30.6967 25.0386 30.6967 24.3742C30.6967 24.2381 30.7244 24.109 30.7662 23.9866L29.495 21.8474C28.8266 22.4835 28.408 23.379 28.408 24.3742ZM26.4628 16.7431L25.5585 15.2209C25.1522 16.2362 24.6903 17.8479 24.3302 19.3442C24.8589 18.3333 25.5889 17.4516 26.4628 16.7431Z" fill="white"/>
<path d="M8.83841 18.5359C12.0629 18.5359 14.677 21.1497 14.677 24.3742C14.677 27.5987 12.063 30.213 8.83841 30.213C5.61393 30.213 2.99988 27.5987 2.99988 24.3742C2.99988 21.1497 5.61393 18.5359 8.83841 18.5359ZM8.83841 27.8658C10.7668 27.8658 12.3301 26.3025 12.3301 24.3742C12.3301 22.4464 10.7668 20.8826 8.83841 20.8826C6.9103 20.8826 5.34701 22.4464 5.34701 24.3742C5.34701 26.3025 6.91037 27.8658 8.83841 27.8658Z" fill="white"/>
<path d="M8.83844 23.1715C9.50294 23.1715 10.0414 23.7097 10.0414 24.3742C10.0414 25.0386 9.50294 25.5773 8.83844 25.5773C8.174 25.5773 7.63549 25.0386 7.63549 24.3742C7.63556 23.7097 8.174 23.1715 8.83844 23.1715Z" fill="white"/>
</svg>
