<svg width="14" height="9" viewBox="0 0 14 9" fill="none" xmlns="http://www.w3.org/2000/svg">
<path d="M1.01318 3.5853C0.716331 3.5853 0.475684 3.82595 0.475684 4.1228C0.475684 4.41966 0.716331 4.6603 1.01318 4.6603L1.01318 3.5853ZM13.7558 4.50287C13.9657 4.29297 13.9657 3.95264 13.7558 3.74273L10.3351 0.322105C10.1252 0.112198 9.78489 0.112198 9.57499 0.322105C9.36508 0.532012 9.36508 0.872338 9.57499 1.08224L12.6155 4.1228L9.57499 7.16336C9.36508 7.37327 9.36508 7.7136 9.57499 7.9235C9.78489 8.13341 10.1252 8.13341 10.3351 7.9235L13.7558 4.50287ZM1.01318 4.1228L1.01318 4.6603L13.3757 4.6603L13.3757 4.1228L13.3757 3.5853L1.01318 3.5853L1.01318 4.1228Z" fill="white"/>
</svg>
