<svg width="22" height="23" viewBox="0 0 22 23" fill="none" xmlns="http://www.w3.org/2000/svg">
<g clip-path="url(#clip0_545_5836)">
<path d="M10.1355 20.8183C10.1355 21.6797 9.43471 22.3805 8.57329 22.3805C7.71188 22.3805 7.01107 21.6797 7.01107 20.8183C7.01107 19.9569 7.71188 19.2561 8.57329 19.2561C9.43471 19.2561 10.1355 19.9567 10.1355 20.8183ZM18.2634 19.256C17.402 19.256 16.7012 19.9568 16.7012 20.8183C16.7012 21.6797 17.402 22.3805 18.2634 22.3805C19.1248 22.3805 19.8256 21.6797 19.8256 20.8183C19.8256 19.9568 19.1248 19.256 18.2634 19.256ZM21.8705 5.75926C21.7645 5.63175 21.6072 5.55803 21.4414 5.55781L4.78044 5.53991L3.67404 1.04525C3.61239 0.795342 3.38826 0.619629 3.13098 0.619629H0.559311C0.25034 0.619629 0 0.869969 0 1.17894C0 1.48791 0.25034 1.73825 0.559311 1.73825H2.69249L5.87714 14.6759L6.3551 16.9288C6.54871 17.8421 7.36699 18.505 8.30066 18.505H19.0748C19.3838 18.505 19.6341 18.2547 19.6341 17.9457C19.6341 17.6367 19.3838 17.3864 19.0748 17.3864H8.30066C7.89215 17.3864 7.53408 17.0963 7.44953 16.6967L7.11306 15.1105H19.8977C20.1678 15.1105 20.3992 14.9174 20.4479 14.6518L21.9909 6.21763C22.0207 6.05457 21.9767 5.88655 21.8705 5.75926Z" fill="white"/>
</g>
<defs>
<clipPath id="clip0_545_5836">
<rect width="22" height="22" fill="white" transform="translate(0 0.5)"/>
</clipPath>
</defs>
</svg>
