<svg width="11" height="12" viewBox="0 0 11 12" fill="none" xmlns="http://www.w3.org/2000/svg">
<path fill-rule="evenodd" clip-rule="evenodd" d="M2.69388 0.782471C1.9811 0.782471 1.29752 1.06562 0.793508 1.56963C0.289498 2.07364 0.00634766 2.75723 0.00634766 3.47V8.84507C0.00634766 9.55785 0.289498 10.2414 0.793508 10.7454C1.29752 11.2495 1.9811 11.5326 2.69388 11.5326H8.06895C8.78173 11.5326 9.46531 11.2495 9.96932 10.7454C10.4733 10.2414 10.7565 9.55785 10.7565 8.84507V3.47C10.7565 2.75723 10.4733 2.07364 9.96932 1.56963C9.46531 1.06562 8.78173 0.782471 8.06895 0.782471H2.69388ZM7.87545 4.13221C7.98489 4.22347 8.05362 4.35446 8.06652 4.49637C8.07942 4.63829 8.03544 4.77952 7.94425 4.88902L5.25671 8.11406C5.21029 8.16972 5.15309 8.21542 5.08855 8.2484C5.02402 8.28139 4.95347 8.30098 4.88117 8.306C4.80887 8.31102 4.73629 8.30137 4.66782 8.27762C4.59934 8.25387 4.53637 8.21652 4.4827 8.16781L2.87018 6.70203C2.76666 6.60566 2.70529 6.47236 2.69939 6.33105C2.69348 6.18973 2.74352 6.05178 2.83864 5.94711C2.93377 5.84244 3.06632 5.77948 3.20755 5.77188C3.34879 5.76428 3.48732 5.81266 3.59313 5.90652L4.79016 6.99497L7.11864 4.20101C7.2099 4.09157 7.34088 4.02284 7.4828 4.00994C7.62471 3.99704 7.76595 4.04102 7.87545 4.13221Z" fill="#262626"/>
</svg>
