<svg width="11" height="12" viewBox="0 0 11 12" fill="none" xmlns="http://www.w3.org/2000/svg">
<path fill-rule="evenodd" clip-rule="evenodd" d="M2.69364 0.344849C1.98086 0.344849 1.29727 0.627999 0.793264 1.13201C0.289254 1.63602 0.00610352 2.3196 0.00610352 3.03238V8.40745C0.00610352 9.12023 0.289254 9.80381 0.793264 10.3078C1.29727 10.8118 1.98086 11.095 2.69364 11.095H8.0687C8.78148 11.095 9.46507 10.8118 9.96908 10.3078C10.4731 9.80381 10.7562 9.12023 10.7562 8.40745V3.03238C10.7562 2.3196 10.4731 1.63602 9.96908 1.13201C9.46507 0.627999 8.78148 0.344849 8.0687 0.344849H2.69364ZM7.8752 3.69459C7.98465 3.78585 8.05338 3.91684 8.06628 4.05875C8.07918 4.20067 8.0352 4.3419 7.944 4.4514L5.25647 7.67644C5.21005 7.7321 5.15285 7.7778 5.08831 7.81078C5.02377 7.84377 4.95323 7.86336 4.88093 7.86838C4.80862 7.8734 4.73605 7.86375 4.66757 7.84C4.5991 7.81625 4.53613 7.7789 4.48246 7.73019L2.86994 6.26441C2.76641 6.16804 2.70505 6.03474 2.69914 5.89343C2.69324 5.75211 2.74327 5.61416 2.8384 5.50949C2.93352 5.40482 3.06607 5.34186 3.20731 5.33426C3.34854 5.32666 3.48708 5.37504 3.59289 5.4689L4.78991 6.55735L7.11839 3.76339C7.20965 3.65394 7.34064 3.58522 7.48255 3.57231C7.62447 3.55941 7.7657 3.60339 7.8752 3.69459Z" fill="#FECC00"/>
</svg>
