<svg width="80" height="80" viewBox="0 0 80 80" fill="none" xmlns="http://www.w3.org/2000/svg">
<rect x="10.9092" y="10.9092" width="58.1818" height="58.1818" rx="29.0909" fill="#262626"/>
<path fill-rule="evenodd" clip-rule="evenodd" d="M26.0382 45.48L23.5777 46.886C23.3518 47.0168 23.1751 47.2183 23.075 47.4594C22.975 47.7006 22.957 47.968 23.0241 48.2203C23.0911 48.4727 23.2393 48.696 23.4458 48.8557C23.6523 49.0155 23.9057 49.1028 24.1667 49.1042H36.0417C42.8913 49.1042 47.5209 44.2877 47.5209 38.4167C47.5209 32.5727 42.0695 27.7292 35.2501 27.7292C28.4307 27.7292 22.9792 32.5727 22.9792 38.4167C22.9792 41.1147 24.1256 43.5895 26.0382 45.48ZM30.5001 36.8334C30.92 36.8334 31.3227 37.0002 31.6197 37.2972C31.9166 37.5941 32.0834 37.9968 32.0834 38.4167C32.0834 38.8367 31.9166 39.2394 31.6197 39.5363C31.3227 39.8333 30.92 40.0001 30.5001 40.0001C30.0802 40.0001 29.6774 39.8333 29.3805 39.5363C29.0836 39.2394 28.9167 38.8367 28.9167 38.4167C28.9167 37.9968 29.0836 37.5941 29.3805 37.2972C29.6774 37.0002 30.0802 36.8334 30.5001 36.8334ZM35.2501 36.8334C35.67 36.8334 36.0727 37.0002 36.3697 37.2972C36.6666 37.5941 36.8334 37.9968 36.8334 38.4167C36.8334 38.8367 36.6666 39.2394 36.3697 39.5363C36.0727 39.8333 35.67 40.0001 35.2501 40.0001C34.8302 40.0001 34.4274 39.8333 34.1305 39.5363C33.8336 39.2394 33.6667 38.8367 33.6667 38.4167C33.6667 37.9968 33.8336 37.5941 34.1305 37.2972C34.4274 37.0002 34.8302 36.8334 35.2501 36.8334ZM40.0001 36.8334C40.42 36.8334 40.8227 37.0002 41.1197 37.2972C41.4166 37.5941 41.5834 37.9968 41.5834 38.4167C41.5834 38.8367 41.4166 39.2394 41.1197 39.5363C40.8227 39.8333 40.42 40.0001 40.0001 40.0001C39.5802 40.0001 39.1774 39.8333 38.8805 39.5363C38.5836 39.2394 38.4167 38.8367 38.4167 38.4167C38.4167 37.9968 38.5836 37.5941 38.8805 37.2972C39.1774 37.0002 39.5802 36.8334 40.0001 36.8334Z" fill="#FECC00"/>
<path fill-rule="evenodd" clip-rule="evenodd" d="M46.2512 30.9751C48.0451 33.0556 49.1043 35.6475 49.1043 38.4168C49.1043 44.5253 44.766 49.6822 38.0828 50.5562C40.1207 51.6918 42.4172 52.2824 44.7502 52.2709H55.8335C56.0953 52.2708 56.3496 52.1842 56.5571 52.0245C56.7645 51.8649 56.9134 51.6412 56.9806 51.3882C57.0477 51.1352 57.0295 50.8671 56.9285 50.6256C56.8276 50.3841 56.6497 50.1827 56.4225 50.0527L53.962 48.6467C55.8747 46.7562 57.021 44.2814 57.021 41.5834C57.021 36.1748 52.3518 31.6227 46.2512 30.9751Z" fill="#FECC00"/>
<rect x="1.09091" y="1.09091" width="77.8182" height="77.8182" rx="38.9091" stroke="#FECC00" stroke-width="2.18182"/>
</svg>
