<?xml version="1.0"?>
<svg width="1792" height="1792" xmlns="http://www.w3.org/2000/svg" xmlns:svg="http://www.w3.org/2000/svg">
 <g class="layer">
  <title>Layer 1</title>
  <path d="m512,1248l0,192q0,40 -28,68t-68,28l-320,0q-40,0 -68,-28t-28,-68l0,-192q0,-40 28,-68t68,-28l320,0q40,0 68,28t28,68zm0,-512l0,192q0,40 -28,68t-68,28l-320,0q-40,0 -68,-28t-28,-68l0,-192q0,-40 28,-68t68,-28l320,0q40,0 68,28t28,68zm640,512l0,192q0,40 -28,68t-68,28l-320,0q-40,0 -68,-28t-28,-68l0,-192q0,-40 28,-68t68,-28l320,0q40,0 68,28t28,68zm-640,-1024l0,192q0,40 -28,68t-68,28l-320,0q-40,0 -68,-28t-28,-68l0,-192q0,-40 28,-68t68,-28l320,0q40,0 68,28t28,68zm640,512l0,192q0,40 -28,68t-68,28l-320,0q-40,0 -68,-28t-28,-68l0,-192q0,-40 28,-68t68,-28l320,0q40,0 68,28t28,68zm640,512l0,192q0,40 -28,68t-68,28l-320,0q-40,0 -68,-28t-28,-68l0,-192q0,-40 28,-68t68,-28l320,0q40,0 68,28t28,68zm-640,-1024l0,192q0,40 -28,68t-68,28l-320,0q-40,0 -68,-28t-28,-68l0,-192q0,-40 28,-68t68,-28l320,0q40,0 68,28t28,68zm640,512l0,192q0,40 -28,68t-68,28l-320,0q-40,0 -68,-28t-28,-68l0,-192q0,-40 28,-68t68,-28l320,0q40,0 68,28t28,68zm0,-512l0,192q0,40 -28,68t-68,28l-320,0q-40,0 -68,-28t-28,-68l0,-192q0,-40 28,-68t68,-28l320,0q40,0 68,28t28,68z" fill="#626262" id="svg_1"/>
 </g>
</svg>