<?xml version="1.0"?>
<svg width="1792" height="2048" xmlns="http://www.w3.org/2000/svg" xmlns:svg="http://www.w3.org/2000/svg" enable-background="new 0 0 2048 2048" preserveAspectRatio="xMidYMid meet" version="1.1" xml:space="preserve">
 <g class="layer">
  <title>Layer 1</title>
  <path d="m512,1376l0,192c0,26.67 -9.33,49.33 -28,68s-41.33,28 -68,28l-320,0c-26.67,0 -49.33,-9.33 -68,-28s-28,-41.33 -28,-68l0,-192c0,-26.67 9.33,-49.33 28,-68s41.33,-28 68,-28l320,0c26.67,0 49.33,9.33 68,28s28,41.33 28,68zm0,-512l0,192c0,26.67 -9.33,49.33 -28,68s-41.33,28 -68,28l-320,0c-26.67,0 -49.33,-9.33 -68,-28s-28,-41.33 -28,-68l0,-192c0,-26.67 9.33,-49.33 28,-68s41.33,-28 68,-28l320,0c26.67,0 49.33,9.33 68,28s28,41.33 28,68zm1280,512l0,192c0,26.67 -9.33,49.33 -28,68s-41.33,28 -68,28l-960,0c-26.67,0 -49.33,-9.33 -68,-28s-28,-41.33 -28,-68l0,-192c0,-26.67 9.33,-49.33 28,-68s41.33,-28 68,-28l960,0c26.67,0 49.33,9.33 68,28s28,41.33 28,68zm-1280,-1024l0,192c0,26.67 -9.33,49.33 -28,68s-41.33,28 -68,28l-320,0c-26.67,0 -49.33,-9.33 -68,-28s-28,-41.33 -28,-68l0,-192c0,-26.67 9.33,-49.33 28,-68s41.33,-28 68,-28l320,0c26.67,0 49.33,9.33 68,28s28,41.33 28,68zm1280,512l0,192c0,26.67 -9.33,49.33 -28,68s-41.33,28 -68,28l-960,0c-26.67,0 -49.33,-9.33 -68,-28s-28,-41.33 -28,-68l0,-192c0,-26.67 9.33,-49.33 28,-68s41.33,-28 68,-28l960,0c26.67,0 49.33,9.33 68,28s28,41.33 28,68zm0,-512l0,192c0,26.67 -9.33,49.33 -28,68s-41.33,28 -68,28l-960,0c-26.67,0 -49.33,-9.33 -68,-28s-28,-41.33 -28,-68l0,-192c0,-26.67 9.33,-49.33 28,-68s41.33,-28 68,-28l960,0c26.67,0 49.33,9.33 68,28s28,41.33 28,68z" fill="#626262" id="svg_1"/>
 </g>
</svg>