<svg width="41" height="40" viewBox="0 0 41 40" fill="none" xmlns="http://www.w3.org/2000/svg">
<path d="M29.3269 26.6672L23.2647 20.6049L28.1852 15.6844C29.7828 16.0553 31.5286 15.6297 32.776 14.3825C34.141 13.0187 34.5154 11.0574 33.9421 9.34211L31.6255 11.6575C30.8059 12.4795 29.4531 12.4539 28.5998 11.6006C27.75 10.7496 27.7234 9.39676 28.5417 8.5762L30.8571 6.26078C29.1455 5.68381 27.1852 6.06067 25.818 7.42692C24.573 8.67066 24.1488 10.4162 24.5208 12.0165L19.6003 16.9358L14.682 12.0175C15.0529 10.4187 14.6251 8.6729 13.3813 7.42672C12.0175 6.06169 10.0574 5.68604 8.34216 6.25936L10.6576 8.57599C11.4783 9.39554 11.454 10.7496 10.5995 11.6017C9.74843 12.4527 8.39803 12.4781 7.57503 11.6598L5.25941 9.34333C4.68487 11.0562 5.06052 13.0189 6.42799 14.3837C7.67051 15.6299 9.41606 16.0529 11.0176 15.6831L15.9357 20.6L9.87459 26.6611C8.77143 26.5847 7.6441 26.9508 6.80403 27.7957C5.25474 29.3426 5.25474 31.8518 6.80403 33.4011C8.34846 34.9467 10.8589 34.9467 12.4058 33.4011C13.2483 32.5586 13.6131 31.4301 13.5428 30.3269L19.6003 24.267L25.6625 30.3293C25.5874 31.4325 25.9547 32.561 26.7972 33.4023C28.3428 34.9504 30.8545 34.9504 32.4014 33.4023C33.9482 31.8555 33.9482 29.3462 32.4014 27.7982C31.5587 26.9559 30.4301 26.5898 29.3269 26.6672ZM10.1422 32.612L8.1262 32.0739L7.58925 30.0579L9.06216 28.5826L11.0781 29.122L11.6175 31.1367L10.1422 32.612ZM31.0725 32.0775L29.0578 32.6145L27.5824 31.1391L28.1206 29.1244L30.1365 28.585L31.6131 30.0603L31.0725 32.0775Z" fill="white"/>
</svg>
