<svg width="35" height="35" viewBox="0 0 35 35" fill="none" xmlns="http://www.w3.org/2000/svg">
<rect width="35" height="35" rx="17.5" fill="#FECC00"/>
<path fill-rule="evenodd" clip-rule="evenodd" d="M27.3141 12.3126C27.4564 11.8446 27.3141 11.5 26.6327 11.5H24.3827C23.8101 11.5 23.5461 11.7974 23.403 12.1257C23.403 12.1257 22.2587 14.8651 20.6378 16.6446C20.1132 17.1606 19.875 17.3243 19.5887 17.3243C19.4455 17.3243 19.2304 17.1606 19.2304 16.6917V12.3126C19.2304 11.7503 19.0727 11.5 18.5961 11.5H15.0578C14.7004 11.5 14.4852 11.7606 14.4852 12.0083C14.4852 12.5406 15.2961 12.664 15.3792 14.1623V17.4177C15.3792 18.1317 15.2481 18.2611 14.9618 18.2611C14.199 18.2611 12.3432 15.5089 11.2418 12.3597C11.0284 11.7469 10.8124 11.5 10.2373 11.5H7.98554C7.34268 11.5 7.21411 11.7974 7.21411 12.1257C7.21411 12.7103 7.97697 15.6143 10.767 19.4551C12.627 22.078 15.2455 23.5 17.631 23.5C19.0615 23.5 19.2381 23.1846 19.2381 22.6403V20.6577C19.2381 20.026 19.3735 19.9 19.827 19.9C20.1612 19.9 20.733 20.0646 22.0684 21.3288C23.5941 22.828 23.8452 23.5 24.7041 23.5H26.9541C27.5969 23.5 27.9192 23.1846 27.7341 22.5606C27.5301 21.94 26.8015 21.0391 25.8355 19.9703C25.3109 19.3617 24.5241 18.706 24.285 18.3777C23.9515 17.9569 24.0467 17.7691 24.285 17.3946C24.285 17.3946 27.0278 13.6009 27.3132 12.3126H27.3141Z" fill="#262626"/>
</svg>
