<svg width="35" height="35" viewBox="0 0 35 35" fill="none" xmlns="http://www.w3.org/2000/svg">
<g clip-path="url(#clip0_545_4351)">
<path d="M0 17.5C0 7.83504 7.83504 0 17.5 0C27.165 0 35 7.83504 35 17.5C35 27.165 27.165 35 17.5 35C7.83504 35 0 27.165 0 17.5Z" fill="#FECC00"/>
<path d="M26.4432 13.1783C26.2285 12.3536 25.596 11.7042 24.7928 11.4838C23.3372 11.0833 17.5 11.0833 17.5 11.0833C17.5 11.0833 11.6627 11.0833 10.2071 11.4838C9.4038 11.7042 8.77125 12.3536 8.55658 13.1783C8.16663 14.673 8.16663 17.7916 8.16663 17.7916C8.16663 17.7916 8.16663 20.9101 8.55658 22.4049C8.77125 23.2296 9.4038 23.879 10.2071 24.0995C11.6627 24.4999 17.5 24.4999 17.5 24.4999C17.5 24.4999 23.3372 24.4999 24.7928 24.0995C25.596 23.879 26.2285 23.2296 26.4432 22.4049C26.8333 20.9101 26.8333 17.7916 26.8333 17.7916C26.8333 17.7916 26.8333 14.673 26.4432 13.1783Z" fill="#262626"/>
<path d="M15.75 21.0001V15.1667L20.4167 18.0835L15.75 21.0001Z" fill="#FECC00"/>
</g>
<defs>
<clipPath id="clip0_545_4351">
<rect width="35" height="35" fill="white"/>
</clipPath>
</defs>
</svg>
