<svg width="24" height="26" viewBox="0 0 24 26" fill="none" xmlns="http://www.w3.org/2000/svg">
<g clip-path="url(#clip0_445_22595)">
<path d="M3.76719 3.8181C5.67338 1.67836 8.32468 0.5 11.2326 0.5H12.0218C17.8778 0.5 22.6633 5.35332 22.8746 11.4018C22.877 11.4218 22.8848 11.44 22.8848 11.4606V11.8183V16.8508V16.9498C22.8848 16.9597 22.8798 16.9687 22.8792 16.9787C22.8497 19.6893 21.8945 22.296 20.1731 24.33C20.081 24.4393 19.9492 24.4991 19.8138 24.4991C19.7717 24.4991 19.7294 24.4933 19.6875 24.4816L2.22439 19.5119C2.06165 19.4656 1.93436 19.3332 1.8892 19.1639C1.6932 18.4285 1.56646 17.6722 1.51212 16.9164L1.14627 11.8264C0.928919 8.8033 1.85991 5.95926 3.76719 3.8181ZM21.9265 11.883L11.9485 10.1472C11.1365 10.0063 10.4905 10.1619 10.1772 10.5745C9.8642 10.9872 9.86803 11.6773 10.1875 12.4677L11.7494 16.3306L21.9265 16.4452V11.883ZM2.10148 11.7524L2.46733 16.8424C2.51031 17.4404 2.60297 18.0387 2.7434 18.625L19.6472 23.4353C20.998 21.7395 21.7808 19.6397 21.9019 17.4431L11.4249 17.3254C11.2341 17.3234 11.0626 17.2031 10.9887 17.0199L9.30481 12.8554C8.83863 11.7028 8.88147 10.6731 9.42553 9.95586C9.96959 9.23857 10.9221 8.95742 12.1061 9.16301L21.8803 10.8632C21.4157 5.61908 17.174 1.49801 12.0218 1.49801H11.2326C8.59418 1.49801 6.19238 2.56331 4.46933 4.49689C2.74545 6.43203 1.90453 9.00889 2.10148 11.7524Z" fill="#ACACAC"/>
<path d="M6.118 11.4781C7.17464 11.4781 8.03418 12.3734 8.03418 13.4742C8.03418 14.575 7.17464 15.4702 6.118 15.4702C5.06137 15.4702 4.20182 14.575 4.20182 13.4742C4.20182 12.3734 5.0615 11.4781 6.118 11.4781ZM6.118 14.4722C6.64632 14.4722 7.07609 14.0244 7.07609 13.4742C7.07609 12.924 6.64646 12.4762 6.118 12.4762C5.58955 12.4762 5.15991 12.924 5.15991 13.4742C5.15991 14.0244 5.58968 14.4722 6.118 14.4722Z" fill="#ACACAC"/>
<path d="M11.0489 11.1254C11.236 10.9305 11.5391 10.9305 11.7263 11.1254L13.1634 12.6224C13.3505 12.8173 13.3505 13.1331 13.1634 13.328C13.0699 13.4254 12.9474 13.4742 12.8248 13.4742C12.7021 13.4742 12.5796 13.4254 12.486 13.328L11.0489 11.831C10.8618 11.6361 10.8618 11.3203 11.0489 11.1254Z" fill="#ACACAC"/>
<path d="M2.97719 20.1884L18.2049 24.5196C18.4603 24.5921 18.6107 24.8666 18.5411 25.1326C18.4828 25.3543 18.2899 25.5 18.0791 25.5C18.0375 25.5 17.995 25.4942 17.9528 25.4825L2.72508 21.1513C2.46968 21.0787 2.31926 20.8043 2.38893 20.5382C2.45887 20.2726 2.72316 20.1162 2.97719 20.1884Z" fill="#ACACAC"/>
</g>
<defs>
<clipPath id="clip0_445_22595">
<rect width="24" height="25" fill="white" transform="matrix(-1 0 0 1 24 0.5)"/>
</clipPath>
</defs>
</svg>
