<svg width="25" height="28" viewBox="0 0 25 28" fill="none" xmlns="http://www.w3.org/2000/svg">
<path d="M3.2193 3.71627C5.35423 1.31977 8.32369 0 11.5806 0H12.4645C19.0232 0 24.383 5.43572 24.6196 12.21C24.6222 12.2324 24.631 12.2528 24.631 12.2758V12.6765V18.3129V18.4237C24.631 18.4349 24.6255 18.445 24.6247 18.4562C24.5917 21.492 23.5219 24.4115 21.5939 26.6897C21.4907 26.812 21.3431 26.879 21.1915 26.879C21.1443 26.879 21.0969 26.8725 21.05 26.8594L1.49137 21.2934C1.3091 21.2415 1.16653 21.0931 1.11595 20.9036C0.896429 20.08 0.75448 19.2328 0.693623 18.3864L0.283865 12.6856C0.0404339 9.29969 1.08314 6.11437 3.2193 3.71627ZM23.5578 12.749L12.3823 10.8049C11.473 10.6471 10.7494 10.8213 10.3985 11.2834C10.0479 11.7457 10.0522 12.5186 10.41 13.4038L12.1594 17.7302L23.5578 17.8586V12.749ZM1.35371 12.6027L1.76346 18.3035C1.8116 18.9732 1.91538 19.6434 2.07266 20.3L21.005 25.6875C22.5178 23.7882 23.3945 21.4364 23.5302 18.9762L11.796 18.8445C11.5823 18.8423 11.3902 18.7075 11.3074 18.5023L9.42143 13.838C8.89931 12.5471 8.94729 11.3939 9.55664 10.5906C10.166 9.7872 11.2328 9.47231 12.5589 9.70257L23.506 11.6068C22.9857 5.73337 18.2349 1.11777 12.4645 1.11777H11.5806C8.62553 1.11777 5.93552 2.31091 4.0057 4.47651C2.07495 6.64387 1.13312 9.52995 1.35371 12.6027Z" fill="#262626"/>
<path d="M5.85254 12.2954C7.03597 12.2954 7.99866 13.2981 7.99866 14.531C7.99866 15.7639 7.03597 16.7665 5.85254 16.7665C4.66911 16.7665 3.70642 15.7639 3.70642 14.531C3.70642 13.2981 4.66926 12.2954 5.85254 12.2954ZM5.85254 15.6487C6.44425 15.6487 6.9256 15.1472 6.9256 14.531C6.9256 13.9147 6.44441 13.4132 5.85254 13.4132C5.26067 13.4132 4.77948 13.9147 4.77948 14.531C4.77948 15.1472 5.26082 15.6487 5.85254 15.6487Z" fill="#262626"/>
<path d="M11.3749 11.9005C11.5844 11.6822 11.924 11.6822 12.1335 11.9005L13.7431 13.5772C13.9527 13.7955 13.9527 14.1492 13.7431 14.3674C13.6384 14.4765 13.5012 14.5311 13.3639 14.5311C13.2265 14.5311 13.0893 14.4765 12.9845 14.3674L11.3749 12.6908C11.1653 12.4725 11.1653 12.1188 11.3749 11.9005Z" fill="#262626"/>
<path d="M2.33441 22.0509L19.3895 26.9019C19.6755 26.9832 19.844 27.2906 19.766 27.5885C19.7007 27.8368 19.4847 28 19.2486 28C19.202 28 19.1543 27.9935 19.1071 27.9804L2.05204 23.1294C1.766 23.0482 1.59753 22.7408 1.67555 22.4428C1.75389 22.1453 2.0499 21.9701 2.33441 22.0509Z" fill="#262626"/>
</svg>
