<svg width="34" height="28" viewBox="0 0 34 28" fill="none" xmlns="http://www.w3.org/2000/svg">
<path d="M24.3091 7.82739C23.0243 8.04089 22.1441 8.65087 21.9028 8.83521L21.3481 9.25806L21.5151 9.60278L20.1724 9.12622C20.0113 9.06905 19.8229 8.98043 19.6431 8.81665L19.644 8.81567C19.6343 8.80687 19.6256 8.8016 19.6196 8.79712C19.6044 8.80387 19.5781 8.81687 19.5405 8.84399C19.4638 8.89943 19.3818 8.97921 19.2856 9.08032C19.2463 9.12169 19.1864 9.18592 19.144 9.22974C19.0993 9.27603 19.0391 9.3359 18.9741 9.38794V9.38892C18.8635 9.47736 18.3817 9.93112 17.8472 10.4446C17.3272 10.9441 16.7964 11.4613 16.6079 11.6497V11.6506C16.4698 11.7888 16.2884 11.8722 16.1421 11.926C15.9804 11.9854 15.7891 12.034 15.5776 12.0715C15.1536 12.1469 14.6063 12.1859 13.9604 12.1643C12.7468 12.1236 11.1552 11.8674 9.32959 11.2063L8.96143 11.0696C7.1041 10.3532 5.40522 10.0742 4.17236 9.97485C3.56432 9.92585 3.07138 9.92102 2.73096 9.92798V10.5208C4.78751 11.0885 11.7604 13.1771 13.8374 20.093H18.5327C18.5347 20.0929 18.54 20.093 18.5483 20.092C18.5668 20.09 18.5985 20.0849 18.6392 20.0754C18.722 20.0562 18.8323 20.0195 18.9419 19.9495C19.1322 19.8279 19.4074 19.5561 19.4448 18.8557L19.5942 18.8264C19.6122 18.7887 19.6303 18.7591 19.6421 18.7415C19.6663 18.7053 19.6921 18.6755 19.7085 18.6565C19.7431 18.6163 19.7838 18.5742 19.8208 18.5374C19.8968 18.4616 19.9944 18.3702 20.0845 18.2864C20.1783 18.1991 20.2647 18.1191 20.3306 18.0559C20.3372 18.0496 20.3434 18.0429 20.3491 18.0374C20.9809 16.2217 21.8051 14.7999 22.8999 13.8L23.4292 13.3167L23.7954 13.9329L24.8062 15.634L24.9458 15.8684L25.0356 15.7825L25.4019 16.4407L27.1401 19.5637L27.2661 19.7903L27.1821 20.0354C27.158 20.106 27.149 20.162 27.1489 20.2092C27.1489 20.5084 27.3911 20.751 27.6899 20.7512C27.9892 20.7512 28.2319 20.5083 28.2319 20.2092C28.2318 19.9154 27.996 19.6755 27.6997 19.6702L27.3462 19.6633L27.188 19.3469L25.7388 16.4397L25.4575 15.8733L25.1938 15.9934L24.9263 15.5432L23.8667 13.759L23.5601 13.2424L24.0845 12.9514C25.2308 12.314 26.5602 12.05 28.0864 12.1213L28.394 12.1399C29.1964 12.1996 29.9595 12.3855 30.6665 12.675L30.6685 12.6682C29.982 12.328 29.2316 12.0921 28.4351 11.9866L28.019 11.9436C26.5581 11.8344 25.1685 12.1709 23.981 12.8372L23.4849 13.1155L23.1938 12.6262L22.2642 11.0608L21.6196 9.97583L22.8638 10.1877C23.2467 10.253 23.7634 10.316 24.1929 10.3625C24.2325 10.3668 24.2713 10.3703 24.3091 10.3743V7.82739ZM23.3472 17.9983C23.0074 18.6619 22.814 19.4126 22.814 20.2092C22.814 20.3045 22.8183 20.3994 22.8237 20.4934C22.8236 20.4862 22.8229 20.4791 22.8228 20.4719L22.8267 20.1848C22.8615 19.3756 23.067 18.6322 23.3472 17.9983ZM22.2622 11.3528L23.1079 12.7756L23.3657 13.2092L22.9741 13.5266C22.2173 14.1402 21.5861 14.9034 21.1294 15.7766L20.0454 15.3694C20.3841 13.9621 20.8235 12.4228 21.2192 11.4338L21.6587 10.3362L22.2622 11.3528ZM25.6724 15.7747L26.0581 15.6331C26.4795 15.4773 27.2272 15.349 27.6899 15.3489C28.0076 15.3489 28.3188 15.3748 28.6206 15.4231C28.3993 15.3803 28.1728 15.3518 27.9419 15.3401L27.6909 15.3333C26.9716 15.3333 26.2898 15.4933 25.6724 15.7747Z" stroke="#262626" stroke-width="1.16667"/>
<path d="M6.12598 15.3333C3.43323 15.3334 1.2502 17.5165 1.25 20.2092C1.25 22.9022 3.43317 25.086 6.12598 25.0862C8.81902 25.0862 11.0029 22.9023 11.0029 20.2092C11.0027 17.5164 8.8189 15.3333 6.12598 15.3333Z" stroke="#262626" stroke-width="1.16667"/>
<path d="M6.12598 19.6685C5.82676 19.6685 5.58499 19.9114 5.58496 20.2104L5.5957 20.3188C5.64606 20.5659 5.86427 20.7514 6.12598 20.7515C6.4249 20.7515 6.66776 20.5096 6.66797 20.2104C6.66797 19.9114 6.42535 19.6685 6.12598 19.6685Z" stroke="#262626" stroke-width="1.16667"/>
</svg>
