<svg width="24" height="24" viewBox="0 0 24 24" fill="none" xmlns="http://www.w3.org/2000/svg">
<path opacity="0.5" d="M14 20C14 21.1046 13.1046 22 12 22C10.8954 22 10 21.1046 10 20C10 18.8954 10.8954 18 12 18C13.1046 18 14 18.8954 14 20Z" stroke="#ACACAC"/>
<path d="M3.75 4C3.75 3.05719 3.75 2.58579 4.14052 2.29289C4.53105 2 5.15959 2 6.41667 2H17.0833C18.3404 2 18.9689 2 19.3595 2.29289C19.75 2.58579 19.75 3.05719 19.75 4C19.75 4.94281 19.75 5.41421 19.3595 5.70711C18.9689 6 18.3404 6 17.0833 6H6.41667C5.15959 6 4.53105 6 4.14052 5.70711C3.75 5.41421 3.75 4.94281 3.75 4Z" stroke="#ACACAC"/>
<path d="M8.5 16.5C8.5 15.6716 9.17157 15 10 15H14C14.8284 15 15.5 15.6716 15.5 16.5C15.5 17.3284 14.8284 18 14 18H10C9.17157 18 8.5 17.3284 8.5 16.5Z" stroke="#ACACAC"/>
<path opacity="0.5" d="M14 15.5V5.5" stroke="#ACACAC"/>
<path opacity="0.5" d="M10 15.5V6" stroke="#ACACAC"/>
<path d="M8 8L16 10M8 11.5L16 13.5" stroke="#ACACAC" stroke-linecap="round"/>
</svg>
