<svg width="28" height="28" viewBox="0 0 28 28" fill="none" xmlns="http://www.w3.org/2000/svg">
<path opacity="0.5" d="M16.3333 23.3333C16.3333 24.622 15.2887 25.6667 14 25.6667C12.7113 25.6667 11.6666 24.622 11.6666 23.3333C11.6666 22.0446 12.7113 21 14 21C15.2887 21 16.3333 22.0446 16.3333 23.3333Z" stroke="#262626" stroke-width="1.16667"/>
<path d="M4.375 4.66659C4.375 3.56664 4.375 3.01667 4.83061 2.67496C5.28623 2.33325 6.01952 2.33325 7.48611 2.33325H19.9306C21.3971 2.33325 22.1304 2.33325 22.586 2.67496C23.0417 3.01667 23.0417 3.56664 23.0417 4.66659C23.0417 5.76653 23.0417 6.3165 22.586 6.65821C22.1304 6.99992 21.3971 6.99992 19.9306 6.99992H7.48611C6.01952 6.99992 5.28623 6.99992 4.83061 6.65821C4.375 6.3165 4.375 5.76653 4.375 4.66659Z" stroke="#262626" stroke-width="1.16667"/>
<path d="M9.91663 19.25C9.91663 18.2835 10.7001 17.5 11.6666 17.5H16.3333C17.2998 17.5 18.0833 18.2835 18.0833 19.25C18.0833 20.2165 17.2998 21 16.3333 21H11.6666C10.7001 21 9.91663 20.2165 9.91663 19.25Z" stroke="#262626" stroke-width="1.16667"/>
<path opacity="0.5" d="M16.3334 18.0834V6.41675" stroke="#262626" stroke-width="1.16667"/>
<path opacity="0.5" d="M11.6666 18.0833V7" stroke="#262626" stroke-width="1.16667"/>
<path d="M9.33337 9.33325L18.6667 11.6666M9.33337 13.4166L18.6667 15.7499" stroke="#262626" stroke-width="1.16667" stroke-linecap="round"/>
</svg>
