<svg width="28" height="28" viewBox="0 0 28 28" fill="none" xmlns="http://www.w3.org/2000/svg">
<path d="M16.2334 5.03564C16.0059 5.03564 15.8025 5.17346 15.715 5.38346C15.6297 5.59564 15.68 5.83627 15.8441 5.99596C16.1241 6.27596 16.4697 6.55596 16.9881 6.64127C17.4103 6.71346 18.1737 6.70471 19.11 6.70471C19.1297 6.85127 19.1494 6.99127 19.1866 7.20127C19.2609 7.64314 19.3791 8.26221 19.5212 8.96002H9.86563L9.03 7.28658C9.06281 7.28439 9.09563 7.28002 9.12844 7.28002C10.5853 7.28002 11.2 6.88846 11.2 6.49471C11.2 6.16002 10.92 6.16002 10.4716 6.21471H6.88844C6.27156 6.21471 6.16 6.49689 6.16 7.00002C6.16 8.28408 6.91906 7.86846 7.89906 7.53158L8.89219 9.52002L7.58625 12.1319C6.96938 11.8956 6.3 11.76 5.6 11.76C2.51344 11.76 0 14.2735 0 17.36C0 20.4466 2.51344 22.96 5.6 22.96C8.49625 22.96 10.8894 20.7441 11.1716 17.92H13.4356C13.4378 17.92 13.4378 17.92 13.44 17.92C13.4422 17.92 13.4466 17.92 13.4488 17.92C13.4641 17.92 13.4794 17.9178 13.4947 17.9178C13.5122 17.9156 13.5297 17.9135 13.5472 17.9113C13.5494 17.9091 13.5494 17.9091 13.5516 17.9091C13.5691 17.9047 13.5844 17.9003 13.6019 17.896C13.6041 17.896 13.6041 17.896 13.6062 17.8938C13.6216 17.8894 13.6391 17.885 13.6544 17.8763C13.6566 17.8763 13.6566 17.8763 13.6588 17.8763C13.6741 17.8697 13.6894 17.861 13.7047 17.8522C13.7069 17.8522 13.7069 17.8522 13.7091 17.85C13.7244 17.8435 13.7375 17.8347 13.7528 17.8238C13.7528 17.8238 13.7528 17.8238 13.755 17.8238C13.7703 17.8128 13.7834 17.8019 13.7987 17.791L13.8009 17.7888C13.8053 17.7844 13.8097 17.78 13.8162 17.7735C13.825 17.7669 13.8337 17.7581 13.8425 17.7516C13.8469 17.745 13.8512 17.7406 13.8556 17.7363C13.86 17.7319 13.8622 17.7275 13.8666 17.7253L19.9019 10.6816C20.0112 11.1541 20.1359 11.655 20.2738 12.1822C18.2372 13.0244 16.8 15.026 16.8 17.36C16.8 20.4466 19.3134 22.96 22.4 22.96C25.4866 22.96 28 20.4466 28 17.36C28 14.2735 25.4866 11.76 22.4 11.76C22.0391 11.76 21.6891 11.7972 21.3478 11.8628C21.1138 10.955 20.9059 10.0997 20.7484 9.37346C20.5341 8.38033 20.3853 7.57752 20.2913 7.01533C20.2431 6.73314 20.2081 6.51002 20.1863 6.35689C20.1775 6.28033 20.1687 6.21908 20.1644 6.17971C20.16 6.14033 20.16 6.07689 20.16 6.16002C20.16 5.85158 19.9084 5.60002 19.6 5.60002C18.2 5.60002 17.4934 5.59127 17.1719 5.53877C16.8503 5.48408 16.9159 5.48408 16.6359 5.20408C16.5309 5.09471 16.3866 5.03564 16.2334 5.03564ZM10.4256 10.08H18.9438L13.5625 16.356L10.4256 10.08ZM9.52 10.7713L12.5322 16.8H11.1716C10.9966 15.0478 10.0056 13.5341 8.59031 12.635L9.52 10.7713ZM5.6 12.88C6.12281 12.88 6.61938 12.9741 7.08531 13.136L5.09906 17.1085C5.01156 17.2835 5.0225 17.4891 5.12313 17.6553C5.22594 17.8194 5.40531 17.92 5.6 17.92H10.0428C9.76719 20.1338 7.89031 21.84 5.6 21.84C3.11938 21.84 1.12 19.8406 1.12 17.36C1.12 14.8794 3.11938 12.88 5.6 12.88ZM22.4 12.88C24.8806 12.88 26.88 14.8794 26.88 17.36C26.88 19.8406 24.8806 21.84 22.4 21.84C19.9194 21.84 17.92 19.8406 17.92 17.36C17.92 15.5378 19.0006 13.9781 20.5581 13.276C20.9169 14.5863 21.35 16.0191 21.8706 17.5416C21.9297 17.7385 22.0916 17.8872 22.2928 17.9288C22.4941 17.9703 22.7019 17.9003 22.8331 17.7428C22.9666 17.5853 23.0037 17.371 22.9294 17.1785C22.4131 15.6691 21.9844 14.245 21.63 12.95C21.8816 12.9063 22.1375 12.88 22.4 12.88ZM8.08938 13.6325C9.14375 14.3369 9.87875 15.4766 10.0428 16.8H6.50563L8.08938 13.6325Z" fill="#262626"/>
</svg>
