<svg width="35" height="35" viewBox="0 0 35 35" fill="none" xmlns="http://www.w3.org/2000/svg">
<rect width="35" height="35" rx="17.5" fill="#FECC00"/>
<path d="M21.4903 13.1799C21.3085 13.1799 21.1606 13.3279 21.1606 13.5096C21.1606 13.6914 21.3085 13.8393 21.4903 13.8393C21.6721 13.8393 21.82 13.6914 21.82 13.5096C21.82 13.3278 21.6721 13.1799 21.4903 13.1799ZM17.5428 14.5344C15.9312 14.5344 14.62 15.8455 14.62 17.4571C14.62 19.0687 15.9312 20.3799 17.5428 20.3799C19.1544 20.3799 20.4656 19.0688 20.4656 17.4572C20.4656 15.8455 19.1544 14.5344 17.5428 14.5344Z" fill="#262626"/>
<path d="M21.5656 8.5H13.4344C10.7136 8.5 8.5 10.7136 8.5 13.4345V21.5656C8.5 24.2865 10.7136 26.5 13.4344 26.5H21.5656C24.2865 26.5 26.5 24.2864 26.5 21.5656V13.4345C26.5 10.7136 24.2865 8.5 21.5656 8.5ZM17.5 22.4371C14.7777 22.4371 12.563 20.2223 12.563 17.5C12.563 14.7777 14.7777 12.563 17.5 12.563C20.2223 12.563 22.4371 14.7777 22.4371 17.5C22.4371 20.2223 20.2223 22.4371 17.5 22.4371ZM22.7323 13.7677C21.9053 13.7677 21.2324 13.0948 21.2324 12.2677C21.2324 11.4406 21.9053 10.7677 22.7323 10.7677C23.5594 10.7677 24.2323 11.4406 24.2323 12.2677C24.2323 13.0947 23.5594 13.7677 22.7323 13.7677Z" fill="#262626"/>
</svg>
